<svg width="456" height="456" viewBox="0 0 456 456" version="1.1" xmlns="http://www.w3.org/2000/svg" xmlns:xlink="http://www.w3.org/1999/xlink" xml:space="preserve" xmlns:serif="http://www.serif.com/" style="fill-rule:evenodd;clip-rule:evenodd;stroke-linejoin:round;stroke-miterlimit:2;">
<path fill="#314D1C" opacity="1.000000" stroke="none" 
	d="
M350.705322,274.257019 
	C355.301605,279.249023 357.557251,284.770874 355.482574,291.030487 
	C348.048462,313.460144 342.215485,336.396332 333.837555,358.531158 
	C329.582336,369.773590 322.752960,379.359650 315.787140,388.928619 
	C315.143860,389.812347 313.973724,390.408325 314.056854,392.111206 
	C318.446289,390.638489 322.242401,388.323242 325.985565,385.939514 
	C369.823578,358.022827 398.116974,318.810272 409.882263,268.236145 
	C421.493011,218.326324 412.745209,171.768845 384.462891,128.958130 
	C383.911865,128.124069 383.321594,127.315056 382.791229,126.468307 
	C379.992004,121.999229 380.287720,118.157898 383.593689,115.834412 
	C386.778137,113.596329 390.807709,114.634415 393.919769,118.783852 
	C405.651917,134.426880 413.608917,151.965820 419.502655,170.495010 
	C425.704437,189.992584 428.699524,210.006500 428.286896,230.457535 
	C427.464447,271.220093 415.275269,308.375366 391.944519,341.760559 
	C360.671417,386.510925 317.849945,414.114960 264.506714,424.520386 
	C212.120819,434.739136 163.830292,422.753021 120.027428,393.109253 
	C71.806190,360.475311 43.031357,314.616089 34.107273,257.373627 
	C24.798248,197.662018 41.658985,144.735092 80.554276,98.695999 
	C81.518974,97.554115 82.523956,96.410530 83.674400,95.468269 
	C86.683731,93.003502 89.880028,93.057022 92.760956,95.552361 
	C95.722191,98.117264 96.097595,101.339630 93.661957,104.443466 
	C90.479553,108.498947 86.876755,112.227608 83.742760,116.317513 
	C61.902309,144.819565 48.600300,177.046677 46.428066,212.766602 
	C41.861519,287.858276 72.410156,345.683716 135.423309,386.513519 
	C138.623886,388.587341 141.947052,390.471985 145.497147,392.616241 
	C145.980408,390.698639 144.889572,389.700958 144.188263,388.837036 
	C129.238022,370.420197 121.615585,348.648865 115.230789,326.262695 
	C112.263618,315.859253 109.455978,305.351929 105.553299,295.288330 
	C100.552383,282.392731 107.583115,268.875580 124.145081,268.986542 
	C139.475159,269.089264 154.807068,268.910431 170.138214,268.870453 
	C178.637009,268.848267 187.135941,268.872375 195.634674,268.840607 
	C197.993698,268.831787 200.323395,268.993652 202.466721,270.028992 
	C205.105026,271.303406 206.453125,273.455383 206.431702,276.428680 
	C206.411179,279.277588 204.836670,281.047455 202.443130,282.265350 
	C200.267868,283.372131 197.914337,283.230164 195.585022,283.228912 
	C172.754822,283.216461 149.924637,283.197998 127.094437,283.185394 
	C125.428482,283.184479 123.756721,283.134125 122.097862,283.251160 
	C119.449150,283.438110 117.482590,284.760620 117.541855,287.544922 
	C117.601364,290.340454 119.910812,290.863220 122.217720,290.929382 
	C124.882317,291.005737 127.549393,291.018616 130.215408,291.019104 
	C198.039429,291.031921 265.863464,291.040161 333.687469,291.043671 
	C335.186279,291.043762 336.688141,291.028290 338.183136,290.933899 
	C340.362518,290.796295 342.343201,289.975830 342.425079,287.567139 
	C342.511658,285.019928 340.590973,283.756653 338.264191,283.383545 
	C336.797974,283.148468 335.273804,283.243958 333.775635,283.243469 
	C309.112335,283.235352 284.449036,283.235809 259.785736,283.233063 
	C258.285980,283.232880 256.783905,283.274017 255.286865,283.206848 
	C249.758652,282.958801 246.311356,280.112427 246.288971,275.825226 
	C246.267761,271.767914 249.348999,269.050293 255.116852,269.026764 
	C282.445496,268.915253 309.775177,268.936707 337.103821,269.062592 
	C342.021332,269.085236 346.606232,270.698730 350.705322,274.257019 
M291.883575,352.367096 
	C303.440704,349.278961 313.978088,344.042358 323.776093,337.242950 
	C325.975677,335.716522 328.003357,334.098419 327.904968,330.665497 
	C325.893066,331.083435 324.115601,331.361725 322.387878,331.825378 
	C300.467010,337.708008 278.597473,336.782379 256.677856,331.671478 
	C245.428360,329.048462 234.587662,325.202362 224.073883,320.623138 
	C194.756592,307.854065 164.040863,303.626740 132.366562,304.371246 
	C123.705551,304.574829 123.311028,305.012634 125.990707,313.100555 
	C126.805031,315.558380 127.985062,316.671051 130.552460,316.712830 
	C133.039795,316.753326 135.529373,317.068634 138.004700,317.371704 
	C158.397720,319.868286 176.661148,328.066650 194.413300,337.947845 
	C224.755783,354.837036 256.745361,361.750977 291.883575,352.367096 
M136.156479,331.118774 
	C134.785324,331.238220 133.227051,330.045959 131.785522,332.005829 
	C133.218323,336.545380 134.938263,341.226135 136.145599,346.035553 
	C137.357986,350.865143 139.581543,353.490631 145.075348,353.033417 
	C148.315842,352.763733 151.674393,353.695709 154.959549,354.215546 
	C173.782257,357.193909 190.835464,365.162506 207.980103,372.935913 
	C243.156067,388.884674 277.623596,387.739868 311.363434,368.507385 
	C315.916260,365.912140 317.597137,362.110016 318.503998,357.423065 
	C316.501526,356.870453 315.296356,357.974792 314.002319,358.590149 
	C290.225769,369.895966 265.351715,372.574036 239.488770,368.536713 
	C218.228897,365.217926 199.119553,356.464996 180.511093,346.215973 
	C166.872528,338.704224 152.693085,332.636353 136.156479,331.118774 
M204.976807,386.628967 
	C186.205795,378.096802 167.667068,368.832916 146.033218,367.420746 
	C148.389084,372.607544 151.459763,375.265594 156.691498,376.190918 
	C164.076584,377.497162 170.981339,380.503052 177.464706,384.418915 
	C189.760590,391.845459 200.892395,400.845337 212.024643,409.835876 
	C215.261688,412.450165 218.595779,413.788330 222.837296,414.080750 
	C245.488205,415.642242 265.880219,409.035583 285.025513,397.576172 
	C286.167023,396.892914 287.295349,396.178741 288.373169,395.400482 
	C289.434296,394.634338 290.423309,393.768250 291.443970,392.946045 
	C261.897736,401.178223 233.498474,398.442291 204.976807,386.628967 
M333.315521,304.855347 
	C329.660339,304.023956 326.017426,304.966705 322.364685,304.959259 
	C291.885773,304.896912 261.406647,304.937164 230.927597,304.946320 
	C228.953247,304.946930 226.978897,304.946381 225.004532,304.946381 
	C250.106964,318.502625 274.511688,323.693512 301.826172,321.617615 
	C311.802551,320.859375 321.570618,318.589844 330.847534,314.672760 
	C335.602142,312.665192 337.093811,307.789795 333.315521,304.855347 
z"/>
<path fill="#314D1C" opacity="1.000000" stroke="none" 
	d="
M179.250229,36.062237 
	C200.456223,30.656570 221.632919,28.182026 243.016479,29.854694 
	C281.595490,32.872429 317.166962,44.297020 346.681732,70.472084 
	C363.578278,85.456741 373.789276,104.305550 372.069733,127.247063 
	C369.445221,162.262589 355.712280,191.239761 322.556152,207.832443 
	C313.175629,212.526840 303.025757,214.927032 292.653503,215.028198 
	C258.977509,215.356659 244.479218,232.756058 236.344330,262.148712 
	C235.149307,266.466492 234.447113,270.919373 233.470978,275.299530 
	C232.668747,278.899384 230.657303,281.475861 226.769623,281.600616 
	C222.872681,281.725708 221.320816,278.870911 220.488602,275.607635 
	C218.762833,268.840668 217.414459,261.963715 215.393860,255.288498 
	C211.043991,240.918350 203.038696,229.172195 189.741699,221.551025 
	C188.656296,220.928925 187.532913,220.058670 185.946655,220.396500 
	C186.520325,223.498444 188.096283,226.285263 188.296143,229.470200 
	C188.932678,239.614227 185.023880,247.394882 176.185577,252.367676 
	C167.874084,257.044067 159.340714,256.444244 151.533157,251.368942 
	C143.033981,245.844025 139.039749,237.562225 140.163513,227.405273 
	C141.576248,214.636581 151.113754,205.492020 164.259598,203.794876 
	C185.722366,201.024002 202.662796,208.935623 215.787491,225.759735 
	C216.607147,226.810471 217.389511,227.890732 218.226883,228.926849 
	C218.406906,229.149582 218.750031,229.240524 219.348618,229.579239 
	C220.090622,220.698807 220.341827,211.916443 221.644882,203.293015 
	C224.405533,185.023453 231.574203,168.803024 245.689911,156.266693 
	C247.349762,154.792557 247.800995,152.953384 248.221146,151.006790 
	C252.743927,130.052673 265.150085,115.992943 285.268524,108.724831 
	C293.881317,105.613319 302.536499,102.619194 311.174530,99.577705 
	C312.578369,99.083427 313.982483,98.415848 315.465942,99.349274 
	C317.679993,120.313484 309.904083,144.420547 289.151215,153.354935 
	C284.074005,155.540741 278.786438,156.970932 273.461914,158.331818 
	C254.631897,163.144440 242.776642,175.289108 237.974701,195.302017 
	C240.802704,192.412003 243.060822,189.966080 245.463593,187.671631 
	C259.853790,173.929901 277.481995,168.395645 296.909637,167.894730 
	C307.528320,167.620926 318.148865,168.818771 328.515961,164.918579 
	C345.524414,158.519852 357.889435,143.941696 358.662750,128.454880 
	C359.498383,111.720276 353.790070,97.401970 342.343658,85.343147 
	C328.871979,71.150742 312.246704,61.846447 294.218658,54.808842 
	C268.471558,44.757923 241.693726,41.081512 214.295654,43.495823 
	C179.863373,46.529991 148.543640,58.339348 120.835121,79.264679 
	C119.240242,80.469116 117.686806,81.742783 116.008003,82.818703 
	C112.657227,84.966164 109.341843,85.086304 106.622597,81.829308 
	C103.975357,78.658569 104.952782,75.572563 107.531334,72.898712 
	C112.074478,68.187653 117.548660,64.623802 122.950836,61.036221 
	C140.170303,49.600769 158.965485,41.642803 179.250229,36.062237 
M285.583466,201.796234 
	C310.993317,200.942627 334.897461,189.219009 340.594543,174.512878 
	C327.788574,180.769684 314.433319,182.766769 300.604340,181.800522 
	C287.931671,180.915070 276.139740,183.619644 265.247253,190.114334 
	C252.202347,197.892426 243.510742,209.170670 238.719162,223.577103 
	C241.365662,221.607895 243.516388,219.163727 245.902451,216.976227 
	C256.856720,206.933441 270.246033,203.049332 285.583466,201.796234 
M271.445374,144.764175 
	C287.047455,142.234665 298.978363,130.667267 299.601013,118.900200 
	C281.886383,122.002914 266.866669,133.535934 265.356995,145.365814 
	C267.198669,146.045868 268.911987,145.097565 271.445374,144.764175 
M156.168365,223.734970 
	C155.122726,225.070999 154.515915,226.592529 154.154633,228.244278 
	C152.954300,233.731766 155.885818,239.014420 161.244080,240.958359 
	C165.675140,242.565918 171.275513,240.360321 173.652527,236.071548 
	C175.875565,232.060577 175.011566,227.369217 170.648376,224.770447 
	C160.619873,218.797348 163.290375,217.098587 156.168365,223.734970 
z"/>
<path fill="#314D1C" opacity="1.000000" stroke="none" 
	d="
M192.484894,104.498901 
	C206.813629,117.545258 216.760483,132.700180 219.896988,151.831390 
	C221.864944,163.835114 221.598419,175.703354 218.278748,187.443939 
	C217.596756,189.855957 216.745651,192.222763 214.805313,193.971466 
	C211.766220,196.710403 208.300476,196.591522 206.402161,193.021576 
	C200.860535,182.600037 192.300827,174.941864 183.624863,167.397934 
	C161.940903,148.543304 155.122284,124.822594 160.270859,97.100182 
	C160.960526,93.386688 160.490891,89.442604 162.876572,85.002922 
	C173.397522,90.412659 183.446716,96.300003 192.484894,104.498901 
M177.223907,137.219101 
	C183.123993,151.221085 195.874115,158.790710 206.321777,169.152267 
	C210.844803,146.838898 193.296783,117.504135 173.035461,107.797226 
	C171.218918,117.945198 173.526108,127.297516 177.223907,137.219101 
z"/>
<path fill="#314D1C" opacity="1.000000" stroke="none" 
	d="
M94.388733,131.715881 
	C108.489166,131.494110 122.038010,131.426880 135.191544,136.329391 
	C157.550537,144.662918 172.629669,165.303375 172.366714,188.029404 
	C172.300674,193.737244 170.551102,195.843658 164.797897,196.368317 
	C141.673370,198.477249 122.750359,191.337402 110.477333,170.690598 
	C103.768303,159.404037 97.686020,147.746017 91.247375,136.296967 
	C89.403343,133.017944 90.392014,131.690216 94.388733,131.715881 
M137.909515,178.658173 
	C142.914810,181.036072 148.129395,182.530136 153.711655,182.780594 
	C157.196808,182.936966 158.190735,181.435425 157.412598,178.234421 
	C152.478607,157.937912 131.382553,145.766663 112.395515,145.833054 
	C119.429688,158.052841 123.968445,171.396225 137.909515,178.658173 
z"/>
<path fill="#314D1C" opacity="1.000000" stroke="none" 
	d="
M222.774582,130.139160 
	C208.472824,105.573761 213.662048,81.632805 236.857193,65.713821 
	C249.932068,56.740444 247.906754,56.069885 251.382156,71.492752 
	C254.047256,83.319664 256.906219,95.084015 253.690140,107.402016 
	C250.697327,118.864761 243.934418,127.664925 235.458679,135.412949 
	C232.349182,138.255478 229.074081,137.947769 226.232407,134.850052 
	C225.003937,133.510880 224.040817,131.928284 222.774582,130.139160 
M241.638580,93.760300 
	C241.005203,90.094307 241.179443,86.226280 239.177231,82.803185 
	C229.871811,88.993622 224.284683,107.409561 233.014999,117.282684 
	C238.551697,110.663712 242.016876,103.417610 241.638580,93.760300 
z"/>
<path fill="#314D1C" opacity="1.000000" stroke="none" 
	d="
M275.936951,255.402908 
	C265.621063,254.951492 259.602142,248.849686 259.640320,239.335373 
	C259.675873,230.471817 266.125183,223.778290 274.840149,223.559891 
	C283.929993,223.332077 290.969849,229.797318 291.718842,239.060867 
	C292.385254,247.302902 285.754181,254.363724 275.936951,255.402908 
z"/>
</svg>